G04 (created by PCBNEW (2013-07-07 BZR 4022)-stable) date 9/13/2014 6:53:18 PM*
%MOIN*%
G04 Gerber Fmt 3.4, Leading zero omitted, Abs format*
%FSLAX34Y34*%
G01*
G70*
G90*
G04 APERTURE LIST*
%ADD10C,0.00590551*%
%ADD11R,0.055X0.035*%
%ADD12R,0.035X0.055*%
%ADD13R,0.0472X0.0472*%
%ADD14C,0.06*%
%ADD15C,0.02*%
%ADD16R,0.15748X0.15748*%
%ADD17R,0.216535X0.216535*%
%ADD18R,0.0551X0.0236*%
%ADD19C,0.035*%
%ADD20C,0.01*%
G04 APERTURE END LIST*
G54D10*
G54D11*
X8750Y1875D03*
X8750Y1125D03*
G54D12*
X3875Y2500D03*
X3125Y2500D03*
X9875Y1250D03*
X10625Y1250D03*
G54D13*
X3913Y1000D03*
X3087Y1000D03*
G54D14*
X13000Y2000D03*
X12000Y2000D03*
X12000Y1000D03*
G54D15*
X0Y9500D03*
X14500Y0D03*
X0Y0D03*
G54D16*
X7200Y6800D03*
G54D17*
X12221Y6800D03*
X2178Y6800D03*
G54D18*
X7046Y2553D03*
X4946Y2553D03*
X7046Y2053D03*
X7046Y1553D03*
X7046Y1053D03*
X4946Y2053D03*
X4946Y1553D03*
X4946Y1053D03*
G54D19*
X5000Y3500D03*
X8250Y3500D03*
G54D20*
X4950Y2500D02*
X4950Y3450D01*
X4950Y3450D02*
X5000Y3500D01*
X8250Y3500D02*
X7250Y4500D01*
X7250Y4500D02*
X7250Y6750D01*
X12000Y1000D02*
X10875Y1000D01*
X10875Y1000D02*
X10625Y1250D01*
X3875Y2500D02*
X4950Y2500D01*
X4950Y1500D02*
X4000Y1500D01*
X3913Y1413D02*
X3913Y1000D01*
X4000Y1500D02*
X3913Y1413D01*
X3087Y1000D02*
X3087Y2462D01*
X3087Y2462D02*
X3125Y2500D01*
X8750Y1125D02*
X9750Y1125D01*
X9750Y1125D02*
X9875Y1250D01*
X7050Y1500D02*
X7500Y1500D01*
X7875Y1125D02*
X8750Y1125D01*
X7500Y1500D02*
X7875Y1125D01*
X4950Y2000D02*
X5750Y2000D01*
X6250Y1500D02*
X7050Y1500D01*
X5750Y2000D02*
X6250Y1500D01*
X8750Y1875D02*
X11875Y1875D01*
X11875Y1875D02*
X12000Y2000D01*
X7050Y2000D02*
X8625Y2000D01*
X8625Y2000D02*
X8750Y1875D01*
G54D10*
G36*
X14450Y550D02*
X14391Y550D01*
X14188Y466D01*
X14034Y311D01*
X13950Y109D01*
X13950Y50D01*
X13554Y50D01*
X13554Y1918D01*
X13554Y1926D01*
X13554Y5766D01*
X13554Y7833D01*
X13554Y7932D01*
X13516Y8024D01*
X13445Y8094D01*
X13353Y8132D01*
X12334Y8132D01*
X12271Y8070D01*
X12271Y6850D01*
X13491Y6850D01*
X13554Y6912D01*
X13554Y7833D01*
X13554Y5766D01*
X13554Y6687D01*
X13491Y6750D01*
X12271Y6750D01*
X12271Y5529D01*
X12334Y5467D01*
X13353Y5467D01*
X13445Y5505D01*
X13516Y5575D01*
X13554Y5667D01*
X13554Y5766D01*
X13554Y1926D01*
X13543Y2136D01*
X13481Y2287D01*
X13385Y2315D01*
X13315Y2244D01*
X13315Y2385D01*
X13287Y2481D01*
X13081Y2554D01*
X12863Y2543D01*
X12712Y2481D01*
X12684Y2385D01*
X13000Y2070D01*
X13315Y2385D01*
X13315Y2244D01*
X13070Y2000D01*
X13385Y1684D01*
X13481Y1712D01*
X13554Y1918D01*
X13554Y50D01*
X13315Y50D01*
X13315Y1614D01*
X13000Y1929D01*
X12929Y1858D01*
X12929Y2000D01*
X12614Y2315D01*
X12518Y2287D01*
X12473Y2162D01*
X12424Y2282D01*
X12283Y2423D01*
X12171Y2470D01*
X12171Y5529D01*
X12171Y6750D01*
X12171Y6850D01*
X12171Y8070D01*
X12109Y8132D01*
X11089Y8132D01*
X10997Y8094D01*
X10927Y8024D01*
X10889Y7932D01*
X10888Y7833D01*
X10888Y6912D01*
X10951Y6850D01*
X12171Y6850D01*
X12171Y6750D01*
X10951Y6750D01*
X10888Y6687D01*
X10888Y5766D01*
X10889Y5667D01*
X10927Y5575D01*
X10997Y5505D01*
X11089Y5467D01*
X12109Y5467D01*
X12171Y5529D01*
X12171Y2470D01*
X12099Y2499D01*
X11900Y2500D01*
X11717Y2424D01*
X11576Y2283D01*
X11510Y2125D01*
X9210Y2125D01*
X9194Y2163D01*
X9138Y2219D01*
X9064Y2249D01*
X8985Y2250D01*
X8625Y2250D01*
X8625Y3574D01*
X8568Y3712D01*
X8462Y3817D01*
X8324Y3874D01*
X8228Y3875D01*
X7500Y4603D01*
X7500Y5812D01*
X8027Y5812D01*
X8100Y5842D01*
X8156Y5899D01*
X8187Y5972D01*
X8187Y6052D01*
X8187Y7627D01*
X8157Y7700D01*
X8100Y7756D01*
X8027Y7787D01*
X7947Y7787D01*
X6372Y7787D01*
X6299Y7757D01*
X6243Y7700D01*
X6212Y7627D01*
X6212Y7547D01*
X6212Y5972D01*
X6242Y5899D01*
X6299Y5843D01*
X6372Y5812D01*
X6452Y5812D01*
X7000Y5812D01*
X7000Y4500D01*
X7019Y4404D01*
X7073Y4323D01*
X7875Y3521D01*
X7874Y3425D01*
X7931Y3287D01*
X8037Y3182D01*
X8175Y3125D01*
X8324Y3124D01*
X8462Y3181D01*
X8567Y3287D01*
X8624Y3425D01*
X8625Y3574D01*
X8625Y2250D01*
X8435Y2250D01*
X8435Y2250D01*
X7506Y2250D01*
X7501Y2260D01*
X7534Y2293D01*
X7572Y2385D01*
X7572Y2720D01*
X7534Y2812D01*
X7464Y2882D01*
X7372Y2921D01*
X7272Y2921D01*
X7159Y2921D01*
X7096Y2858D01*
X7096Y2603D01*
X7509Y2603D01*
X7572Y2665D01*
X7572Y2720D01*
X7572Y2385D01*
X7572Y2440D01*
X7509Y2503D01*
X7096Y2503D01*
X7096Y2495D01*
X6996Y2495D01*
X6996Y2503D01*
X6996Y2603D01*
X6996Y2858D01*
X6934Y2921D01*
X6820Y2921D01*
X6721Y2921D01*
X6629Y2882D01*
X6559Y2812D01*
X6521Y2720D01*
X6521Y2665D01*
X6583Y2603D01*
X6996Y2603D01*
X6996Y2503D01*
X6583Y2503D01*
X6521Y2440D01*
X6521Y2385D01*
X6559Y2293D01*
X6592Y2260D01*
X6571Y2211D01*
X6571Y2131D01*
X6571Y1895D01*
X6601Y1822D01*
X6620Y1803D01*
X6601Y1784D01*
X6587Y1750D01*
X6353Y1750D01*
X5926Y2176D01*
X5845Y2230D01*
X5750Y2250D01*
X5406Y2250D01*
X5392Y2284D01*
X5373Y2303D01*
X5391Y2321D01*
X5422Y2395D01*
X5422Y2474D01*
X5422Y2710D01*
X5392Y2784D01*
X5335Y2840D01*
X5262Y2871D01*
X5200Y2871D01*
X5200Y3176D01*
X5212Y3181D01*
X5317Y3287D01*
X5374Y3425D01*
X5375Y3574D01*
X5318Y3712D01*
X5212Y3817D01*
X5074Y3874D01*
X4925Y3875D01*
X4787Y3818D01*
X4682Y3712D01*
X4625Y3574D01*
X4624Y3425D01*
X4681Y3287D01*
X4700Y3269D01*
X4700Y2871D01*
X4631Y2871D01*
X4558Y2840D01*
X4501Y2784D01*
X4487Y2750D01*
X4250Y2750D01*
X4250Y2814D01*
X4219Y2888D01*
X4163Y2944D01*
X4089Y2974D01*
X4010Y2975D01*
X3660Y2975D01*
X3586Y2944D01*
X3530Y2888D01*
X3511Y2841D01*
X3511Y5766D01*
X3511Y7833D01*
X3510Y7932D01*
X3472Y8024D01*
X3402Y8094D01*
X3310Y8132D01*
X2290Y8132D01*
X2228Y8070D01*
X2228Y6850D01*
X3448Y6850D01*
X3511Y6912D01*
X3511Y7833D01*
X3511Y5766D01*
X3511Y6687D01*
X3448Y6750D01*
X2228Y6750D01*
X2228Y5529D01*
X2290Y5467D01*
X3310Y5467D01*
X3402Y5505D01*
X3472Y5575D01*
X3510Y5667D01*
X3511Y5766D01*
X3511Y2841D01*
X3500Y2814D01*
X3500Y2814D01*
X3469Y2888D01*
X3413Y2944D01*
X3339Y2974D01*
X3260Y2975D01*
X2910Y2975D01*
X2836Y2944D01*
X2780Y2888D01*
X2750Y2814D01*
X2749Y2735D01*
X2749Y2185D01*
X2780Y2111D01*
X2836Y2055D01*
X2837Y2055D01*
X2837Y1436D01*
X2811Y1436D01*
X2737Y1405D01*
X2681Y1349D01*
X2651Y1275D01*
X2650Y1196D01*
X2650Y724D01*
X2681Y650D01*
X2737Y594D01*
X2811Y564D01*
X2890Y563D01*
X3362Y563D01*
X3436Y594D01*
X3492Y650D01*
X3499Y668D01*
X3507Y650D01*
X3563Y594D01*
X3637Y564D01*
X3716Y563D01*
X4188Y563D01*
X4262Y594D01*
X4318Y650D01*
X4348Y724D01*
X4349Y803D01*
X4349Y1250D01*
X4433Y1250D01*
X4421Y1220D01*
X4421Y1165D01*
X4483Y1103D01*
X4896Y1103D01*
X4896Y1111D01*
X4996Y1111D01*
X4996Y1103D01*
X5409Y1103D01*
X5472Y1165D01*
X5472Y1220D01*
X5434Y1312D01*
X5401Y1345D01*
X5422Y1395D01*
X5422Y1474D01*
X5422Y1710D01*
X5406Y1750D01*
X5646Y1750D01*
X6073Y1323D01*
X6154Y1269D01*
X6250Y1250D01*
X6587Y1250D01*
X6571Y1211D01*
X6571Y1131D01*
X6571Y895D01*
X6601Y822D01*
X6657Y765D01*
X6731Y735D01*
X6810Y735D01*
X7361Y735D01*
X7435Y765D01*
X7491Y821D01*
X7522Y895D01*
X7522Y974D01*
X7522Y1124D01*
X7698Y948D01*
X7779Y894D01*
X7779Y894D01*
X7875Y875D01*
X8289Y875D01*
X8305Y836D01*
X8361Y780D01*
X8435Y750D01*
X8514Y749D01*
X9064Y749D01*
X9138Y780D01*
X9194Y836D01*
X9210Y875D01*
X9524Y875D01*
X9530Y861D01*
X9586Y805D01*
X9660Y775D01*
X9739Y774D01*
X10089Y774D01*
X10163Y805D01*
X10219Y861D01*
X10249Y935D01*
X10249Y935D01*
X10280Y861D01*
X10336Y805D01*
X10410Y775D01*
X10489Y774D01*
X10770Y774D01*
X10779Y769D01*
X10779Y769D01*
X10875Y750D01*
X11562Y750D01*
X11575Y717D01*
X11716Y576D01*
X11900Y500D01*
X12099Y499D01*
X12282Y575D01*
X12423Y716D01*
X12499Y900D01*
X12500Y1099D01*
X12424Y1282D01*
X12283Y1423D01*
X12099Y1499D01*
X11900Y1500D01*
X11717Y1424D01*
X11576Y1283D01*
X11562Y1250D01*
X11000Y1250D01*
X11000Y1564D01*
X10975Y1625D01*
X11667Y1625D01*
X11716Y1576D01*
X11900Y1500D01*
X12099Y1499D01*
X12282Y1575D01*
X12423Y1716D01*
X12470Y1828D01*
X12518Y1712D01*
X12614Y1684D01*
X12929Y2000D01*
X12929Y1858D01*
X12684Y1614D01*
X12712Y1518D01*
X12918Y1445D01*
X13136Y1456D01*
X13287Y1518D01*
X13315Y1614D01*
X13315Y50D01*
X5472Y50D01*
X5472Y885D01*
X5472Y940D01*
X5409Y1003D01*
X4996Y1003D01*
X4996Y747D01*
X5059Y685D01*
X5172Y685D01*
X5272Y685D01*
X5364Y723D01*
X5434Y793D01*
X5472Y885D01*
X5472Y50D01*
X4896Y50D01*
X4896Y747D01*
X4896Y1003D01*
X4483Y1003D01*
X4421Y940D01*
X4421Y885D01*
X4459Y793D01*
X4529Y723D01*
X4621Y685D01*
X4720Y685D01*
X4834Y685D01*
X4896Y747D01*
X4896Y50D01*
X2128Y50D01*
X2128Y5529D01*
X2128Y6750D01*
X2128Y6850D01*
X2128Y8070D01*
X2065Y8132D01*
X1046Y8132D01*
X954Y8094D01*
X883Y8024D01*
X845Y7932D01*
X845Y7833D01*
X845Y6912D01*
X908Y6850D01*
X2128Y6850D01*
X2128Y6750D01*
X908Y6750D01*
X845Y6687D01*
X845Y5766D01*
X845Y5667D01*
X883Y5575D01*
X954Y5505D01*
X1046Y5467D01*
X2065Y5467D01*
X2128Y5529D01*
X2128Y50D01*
X550Y50D01*
X550Y108D01*
X466Y311D01*
X311Y465D01*
X109Y549D01*
X50Y549D01*
X50Y8949D01*
X108Y8949D01*
X311Y9033D01*
X465Y9188D01*
X549Y9390D01*
X549Y9450D01*
X14450Y9450D01*
X14450Y550D01*
X14450Y550D01*
G37*
G54D20*
X14450Y550D02*
X14391Y550D01*
X14188Y466D01*
X14034Y311D01*
X13950Y109D01*
X13950Y50D01*
X13554Y50D01*
X13554Y1918D01*
X13554Y1926D01*
X13554Y5766D01*
X13554Y7833D01*
X13554Y7932D01*
X13516Y8024D01*
X13445Y8094D01*
X13353Y8132D01*
X12334Y8132D01*
X12271Y8070D01*
X12271Y6850D01*
X13491Y6850D01*
X13554Y6912D01*
X13554Y7833D01*
X13554Y5766D01*
X13554Y6687D01*
X13491Y6750D01*
X12271Y6750D01*
X12271Y5529D01*
X12334Y5467D01*
X13353Y5467D01*
X13445Y5505D01*
X13516Y5575D01*
X13554Y5667D01*
X13554Y5766D01*
X13554Y1926D01*
X13543Y2136D01*
X13481Y2287D01*
X13385Y2315D01*
X13315Y2244D01*
X13315Y2385D01*
X13287Y2481D01*
X13081Y2554D01*
X12863Y2543D01*
X12712Y2481D01*
X12684Y2385D01*
X13000Y2070D01*
X13315Y2385D01*
X13315Y2244D01*
X13070Y2000D01*
X13385Y1684D01*
X13481Y1712D01*
X13554Y1918D01*
X13554Y50D01*
X13315Y50D01*
X13315Y1614D01*
X13000Y1929D01*
X12929Y1858D01*
X12929Y2000D01*
X12614Y2315D01*
X12518Y2287D01*
X12473Y2162D01*
X12424Y2282D01*
X12283Y2423D01*
X12171Y2470D01*
X12171Y5529D01*
X12171Y6750D01*
X12171Y6850D01*
X12171Y8070D01*
X12109Y8132D01*
X11089Y8132D01*
X10997Y8094D01*
X10927Y8024D01*
X10889Y7932D01*
X10888Y7833D01*
X10888Y6912D01*
X10951Y6850D01*
X12171Y6850D01*
X12171Y6750D01*
X10951Y6750D01*
X10888Y6687D01*
X10888Y5766D01*
X10889Y5667D01*
X10927Y5575D01*
X10997Y5505D01*
X11089Y5467D01*
X12109Y5467D01*
X12171Y5529D01*
X12171Y2470D01*
X12099Y2499D01*
X11900Y2500D01*
X11717Y2424D01*
X11576Y2283D01*
X11510Y2125D01*
X9210Y2125D01*
X9194Y2163D01*
X9138Y2219D01*
X9064Y2249D01*
X8985Y2250D01*
X8625Y2250D01*
X8625Y3574D01*
X8568Y3712D01*
X8462Y3817D01*
X8324Y3874D01*
X8228Y3875D01*
X7500Y4603D01*
X7500Y5812D01*
X8027Y5812D01*
X8100Y5842D01*
X8156Y5899D01*
X8187Y5972D01*
X8187Y6052D01*
X8187Y7627D01*
X8157Y7700D01*
X8100Y7756D01*
X8027Y7787D01*
X7947Y7787D01*
X6372Y7787D01*
X6299Y7757D01*
X6243Y7700D01*
X6212Y7627D01*
X6212Y7547D01*
X6212Y5972D01*
X6242Y5899D01*
X6299Y5843D01*
X6372Y5812D01*
X6452Y5812D01*
X7000Y5812D01*
X7000Y4500D01*
X7019Y4404D01*
X7073Y4323D01*
X7875Y3521D01*
X7874Y3425D01*
X7931Y3287D01*
X8037Y3182D01*
X8175Y3125D01*
X8324Y3124D01*
X8462Y3181D01*
X8567Y3287D01*
X8624Y3425D01*
X8625Y3574D01*
X8625Y2250D01*
X8435Y2250D01*
X8435Y2250D01*
X7506Y2250D01*
X7501Y2260D01*
X7534Y2293D01*
X7572Y2385D01*
X7572Y2720D01*
X7534Y2812D01*
X7464Y2882D01*
X7372Y2921D01*
X7272Y2921D01*
X7159Y2921D01*
X7096Y2858D01*
X7096Y2603D01*
X7509Y2603D01*
X7572Y2665D01*
X7572Y2720D01*
X7572Y2385D01*
X7572Y2440D01*
X7509Y2503D01*
X7096Y2503D01*
X7096Y2495D01*
X6996Y2495D01*
X6996Y2503D01*
X6996Y2603D01*
X6996Y2858D01*
X6934Y2921D01*
X6820Y2921D01*
X6721Y2921D01*
X6629Y2882D01*
X6559Y2812D01*
X6521Y2720D01*
X6521Y2665D01*
X6583Y2603D01*
X6996Y2603D01*
X6996Y2503D01*
X6583Y2503D01*
X6521Y2440D01*
X6521Y2385D01*
X6559Y2293D01*
X6592Y2260D01*
X6571Y2211D01*
X6571Y2131D01*
X6571Y1895D01*
X6601Y1822D01*
X6620Y1803D01*
X6601Y1784D01*
X6587Y1750D01*
X6353Y1750D01*
X5926Y2176D01*
X5845Y2230D01*
X5750Y2250D01*
X5406Y2250D01*
X5392Y2284D01*
X5373Y2303D01*
X5391Y2321D01*
X5422Y2395D01*
X5422Y2474D01*
X5422Y2710D01*
X5392Y2784D01*
X5335Y2840D01*
X5262Y2871D01*
X5200Y2871D01*
X5200Y3176D01*
X5212Y3181D01*
X5317Y3287D01*
X5374Y3425D01*
X5375Y3574D01*
X5318Y3712D01*
X5212Y3817D01*
X5074Y3874D01*
X4925Y3875D01*
X4787Y3818D01*
X4682Y3712D01*
X4625Y3574D01*
X4624Y3425D01*
X4681Y3287D01*
X4700Y3269D01*
X4700Y2871D01*
X4631Y2871D01*
X4558Y2840D01*
X4501Y2784D01*
X4487Y2750D01*
X4250Y2750D01*
X4250Y2814D01*
X4219Y2888D01*
X4163Y2944D01*
X4089Y2974D01*
X4010Y2975D01*
X3660Y2975D01*
X3586Y2944D01*
X3530Y2888D01*
X3511Y2841D01*
X3511Y5766D01*
X3511Y7833D01*
X3510Y7932D01*
X3472Y8024D01*
X3402Y8094D01*
X3310Y8132D01*
X2290Y8132D01*
X2228Y8070D01*
X2228Y6850D01*
X3448Y6850D01*
X3511Y6912D01*
X3511Y7833D01*
X3511Y5766D01*
X3511Y6687D01*
X3448Y6750D01*
X2228Y6750D01*
X2228Y5529D01*
X2290Y5467D01*
X3310Y5467D01*
X3402Y5505D01*
X3472Y5575D01*
X3510Y5667D01*
X3511Y5766D01*
X3511Y2841D01*
X3500Y2814D01*
X3500Y2814D01*
X3469Y2888D01*
X3413Y2944D01*
X3339Y2974D01*
X3260Y2975D01*
X2910Y2975D01*
X2836Y2944D01*
X2780Y2888D01*
X2750Y2814D01*
X2749Y2735D01*
X2749Y2185D01*
X2780Y2111D01*
X2836Y2055D01*
X2837Y2055D01*
X2837Y1436D01*
X2811Y1436D01*
X2737Y1405D01*
X2681Y1349D01*
X2651Y1275D01*
X2650Y1196D01*
X2650Y724D01*
X2681Y650D01*
X2737Y594D01*
X2811Y564D01*
X2890Y563D01*
X3362Y563D01*
X3436Y594D01*
X3492Y650D01*
X3499Y668D01*
X3507Y650D01*
X3563Y594D01*
X3637Y564D01*
X3716Y563D01*
X4188Y563D01*
X4262Y594D01*
X4318Y650D01*
X4348Y724D01*
X4349Y803D01*
X4349Y1250D01*
X4433Y1250D01*
X4421Y1220D01*
X4421Y1165D01*
X4483Y1103D01*
X4896Y1103D01*
X4896Y1111D01*
X4996Y1111D01*
X4996Y1103D01*
X5409Y1103D01*
X5472Y1165D01*
X5472Y1220D01*
X5434Y1312D01*
X5401Y1345D01*
X5422Y1395D01*
X5422Y1474D01*
X5422Y1710D01*
X5406Y1750D01*
X5646Y1750D01*
X6073Y1323D01*
X6154Y1269D01*
X6250Y1250D01*
X6587Y1250D01*
X6571Y1211D01*
X6571Y1131D01*
X6571Y895D01*
X6601Y822D01*
X6657Y765D01*
X6731Y735D01*
X6810Y735D01*
X7361Y735D01*
X7435Y765D01*
X7491Y821D01*
X7522Y895D01*
X7522Y974D01*
X7522Y1124D01*
X7698Y948D01*
X7779Y894D01*
X7779Y894D01*
X7875Y875D01*
X8289Y875D01*
X8305Y836D01*
X8361Y780D01*
X8435Y750D01*
X8514Y749D01*
X9064Y749D01*
X9138Y780D01*
X9194Y836D01*
X9210Y875D01*
X9524Y875D01*
X9530Y861D01*
X9586Y805D01*
X9660Y775D01*
X9739Y774D01*
X10089Y774D01*
X10163Y805D01*
X10219Y861D01*
X10249Y935D01*
X10249Y935D01*
X10280Y861D01*
X10336Y805D01*
X10410Y775D01*
X10489Y774D01*
X10770Y774D01*
X10779Y769D01*
X10779Y769D01*
X10875Y750D01*
X11562Y750D01*
X11575Y717D01*
X11716Y576D01*
X11900Y500D01*
X12099Y499D01*
X12282Y575D01*
X12423Y716D01*
X12499Y900D01*
X12500Y1099D01*
X12424Y1282D01*
X12283Y1423D01*
X12099Y1499D01*
X11900Y1500D01*
X11717Y1424D01*
X11576Y1283D01*
X11562Y1250D01*
X11000Y1250D01*
X11000Y1564D01*
X10975Y1625D01*
X11667Y1625D01*
X11716Y1576D01*
X11900Y1500D01*
X12099Y1499D01*
X12282Y1575D01*
X12423Y1716D01*
X12470Y1828D01*
X12518Y1712D01*
X12614Y1684D01*
X12929Y2000D01*
X12929Y1858D01*
X12684Y1614D01*
X12712Y1518D01*
X12918Y1445D01*
X13136Y1456D01*
X13287Y1518D01*
X13315Y1614D01*
X13315Y50D01*
X5472Y50D01*
X5472Y885D01*
X5472Y940D01*
X5409Y1003D01*
X4996Y1003D01*
X4996Y747D01*
X5059Y685D01*
X5172Y685D01*
X5272Y685D01*
X5364Y723D01*
X5434Y793D01*
X5472Y885D01*
X5472Y50D01*
X4896Y50D01*
X4896Y747D01*
X4896Y1003D01*
X4483Y1003D01*
X4421Y940D01*
X4421Y885D01*
X4459Y793D01*
X4529Y723D01*
X4621Y685D01*
X4720Y685D01*
X4834Y685D01*
X4896Y747D01*
X4896Y50D01*
X2128Y50D01*
X2128Y5529D01*
X2128Y6750D01*
X2128Y6850D01*
X2128Y8070D01*
X2065Y8132D01*
X1046Y8132D01*
X954Y8094D01*
X883Y8024D01*
X845Y7932D01*
X845Y7833D01*
X845Y6912D01*
X908Y6850D01*
X2128Y6850D01*
X2128Y6750D01*
X908Y6750D01*
X845Y6687D01*
X845Y5766D01*
X845Y5667D01*
X883Y5575D01*
X954Y5505D01*
X1046Y5467D01*
X2065Y5467D01*
X2128Y5529D01*
X2128Y50D01*
X550Y50D01*
X550Y108D01*
X466Y311D01*
X311Y465D01*
X109Y549D01*
X50Y549D01*
X50Y8949D01*
X108Y8949D01*
X311Y9033D01*
X465Y9188D01*
X549Y9390D01*
X549Y9450D01*
X14450Y9450D01*
X14450Y550D01*
M02*
